inDegrees=no
num_controls=7
num_derivatives=13
num_iterations=157
num_multipliers=7
num_parameters=0
num_slacks=7
num_states=26
objective=5.487975
objective_accelerations=0.525536
objective_balance=0.013469
objective_effort=0.421552
objective_height=4.434551
objective_ligament=0.092868
solver_duration=1309.856717
status=Solve_Succeeded
success=true
DataType=double
version=3
OpenSimVersion=4.4-2022-07-23-0e9fedc
endheader
time	/jointset/ground_pelvis/pelvis_tilt/value	/jointset/ground_pelvis/pelvis_tx/value	/jointset/ground_pelvis/pelvis_ty/value	/jointset/hip_r/hip_flexion_r/value	/jointset/hip_r/hip_adduction_r/value	/jointset/hip_r/hip_rotation_r/value	/jointset/back/lumbar_extension/value	/jointset/patellofemoral_r/patellar_flexion_r/value	/jointset/knee_r/knee_flexion_r/value	/jointset/knee_r/knee_adduction_r/value	/jointset/knee_r/knee_rotation_r/value	/jointset/ankle_r/ankle_angle_r/value	/jointset/subtalar_r/subtalar_angle_r/value	/jointset/ground_pelvis/pelvis_tilt/speed	/jointset/ground_pelvis/pelvis_tx/speed	/jointset/ground_pelvis/pelvis_ty/speed	/jointset/hip_r/hip_flexion_r/speed	/jointset/hip_r/hip_adduction_r/speed	/jointset/hip_r/hip_rotation_r/speed	/jointset/back/lumbar_extension/speed	/jointset/patellofemoral_r/patellar_flexion_r/speed	/jointset/knee_r/knee_flexion_r/speed	/jointset/knee_r/knee_adduction_r/speed	/jointset/knee_r/knee_rotation_r/speed	/jointset/ankle_r/ankle_angle_r/speed	/jointset/subtalar_r/subtalar_angle_r/speed	/forceset/tau_hip_flexion_r	/forceset/tau_hip_adduction_r	/forceset/tau_hip_rotation_r	/forceset/tau_knee_flexion_r	/forceset/tau_ankle_angle_r	/forceset/tau_subtalar_angle_r	/forceset/tau_lumbar_extension	lambda_cid13_p0	lambda_cid14_p0	lambda_cid14_p1	lambda_cid14_p2	lambda_cid14_p3	lambda_cid14_p4	lambda_cid14_p5	/jointset/ground_pelvis/pelvis_tilt/accel	/jointset/ground_pelvis/pelvis_tx/accel	/jointset/ground_pelvis/pelvis_ty/accel	/jointset/hip_r/hip_flexion_r/accel	/jointset/hip_r/hip_adduction_r/accel	/jointset/hip_r/hip_rotation_r/accel	/jointset/back/lumbar_extension/accel	/jointset/patellofemoral_r/patellar_flexion_r/accel	/jointset/knee_r/knee_flexion_r/accel	/jointset/knee_r/knee_adduction_r/accel	/jointset/knee_r/knee_rotation_r/accel	/jointset/ankle_r/ankle_angle_r/accel	/jointset/subtalar_r/subtalar_angle_r/accel	gamma_cid13_p0	gamma_cid14_p0	gamma_cid14_p1	gamma_cid14_p2	gamma_cid14_p3	gamma_cid14_p4	gamma_cid14_p5
1	-0.1911085222728938	-0.00199777836915233	0.6676968903856554	1.304876747761509	-0.2354172821773257	-0.1081117896653775	-0.7853892221613072	1.431092399109559	1.431092399109599	-0.1745329184537517	0.1745318834814469	0.4362569291646547	0.1817532293861911	0.06966243910151482	0.005745368031208614	0.0147379961899192	-0.1003789342748754	-0.00101225021339406	-0.002954010493014125	0.001397899078918293	-0.01750988112891645	-0.01750988112891991	0.00328341632531126	-0.0001732742249756561	0.013198673838205	0.00509060290037536	-0.3055943642714991	0.01464532412027728	0.01370429075826266	-0.4473400788510886	-0.0315211901609451	0.01661168261227146	0.3412837706215102	-0.04210660690055055	-59.91966363964135	-4.689868813464783	2.78341120235944	7.938239411585627	-759.0508026443121	82.67363282040249	1.175528860620178	0.1477975255053892	1.632291025196086	-4.925157580641207	0.2845338878714282	-0.5648588091453973	0.09177910829622535	-4.748474290214864	-4.748474290215115	0.6038053768732826	-0.02051003562405834	-1.137471891649626	-0.04599887370390075	1.357487727977645e-09	8.067342286571622e-10	1.219207659393082e-08	8.790736147829816e-09	1.320794013335437e-09	-5.325605213552168e-09	2.028996186094204e-08
1.01	-0.1903542751007311	-0.001932727036626131	0.6679256946426173	1.303627905110739	-0.2354133945820429	-0.1081668963862725	-0.7853678568521172	1.430680515317042	1.430680515317009	-0.1744670573028603	0.1745288764291188	0.4363323053859636	0.1818014958441501	0.08113391116602776	0.007288396698733175	0.03101657692952664	-0.1493566268422364	0.001775876164533315	-0.008021052939173006	0.003083129857654679	-0.06485024357702637	-0.06485024357703541	0.009950382408888441	-0.0004173958502811042	0.001906362787204563	0.004550562779423769	-0.3063507228547506	0.0146690119676817	0.01376309192840396	-0.4473128139983566	-0.03166330660777616	0.01660926693363053	0.3423657934660435	-0.04209845698627306	-59.99486271824536	-4.702499570376957	2.783614420346049	7.658476751006498	-759.6937750675031	82.67975307563025	1.124995305898439	0.1610805243243769	1.624697791844679	-4.879128395082365	0.2738719360519077	-0.4706836876420172	0.2380901274178931	-4.724322877516768	-4.724322877517221	0.7073786838896495	-0.02474430738858625	-1.12064240618556	-0.05981711159247687	3.602756067027333e-09	3.951265209908747e-09	3.234741819173678e-08	2.733093281149671e-08	1.268276144574007e-09	-1.027749585636452e-08	5.401265299439868e-08
1.02	-0.1894869054226277	-0.001851540420034575	0.6683170959456755	1.301890274874222	-0.2353820417383185	-0.1082712848767103	-0.7853234002221794	1.429795726768963	1.429795726768902	-0.1743326791992126	0.174523751944231	0.4362956521578912	0.1818439997948395	0.09228694029181975	0.008972424844280126	0.04725740540917683	-0.1981364514215344	0.004480799474421117	-0.01281036439698173	0.006016163226614018	-0.1120908322414497	-0.1120908322414584	0.01698680688406404	-0.0005967607317780534	-0.009207216038215107	0.00393810144640034	-0.3071070814380341	0.0146926998150304	0.01382189309903428	-0.4472855491455741	-0.03180542305462275	0.01660685125486523	0.3434478163105423	-0.04209834696634628	-60.07861904418319	-4.713111748298776	2.779478298835055	7.382278370132995	-760.4725625885502	82.71992416109093	1.111840272876153	0.1759974211097592	1.624740573204617	-4.885583983028578	0.2678932742635287	-0.5093126114753718	0.3413396263408629	-4.728519533477514	-4.728519533476591	0.6776970551929385	-0.007558686862347529	-1.101725446533644	-0.06048311611832576	8.41817926242978e-09	1.157917695442083e-08	5.788837558429415e-08	6.405312308890179e-08	-2.823454667755124e-09	-1.702812166736046e-08	1.091381181423813e-07
1.03	-0.188509437884983	-0.001752906609433235	0.6688707292341403	1.299665767321256	-0.2353239978750735	-0.1084222334385908	-0.7852439911842113	1.428438815992479	1.428438815992472	-0.1741261479233477	0.1745171149542138	0.4361484432115207	0.1818799616808784	0.1031677657187913	0.0107681148137887	0.06346401485257279	-0.2467371668583249	0.007120949690681488	-0.01733997633794501	0.01001437402645023	-0.1592962932451808	-0.1592962932451663	0.02437210538445032	-0.0007268340318920224	-0.02023588926213142	0.00323889660725981	-0.3074446289697589	0.0148482638122221	0.01391967732365026	-0.4469830487154426	-0.03212537224449852	0.01655288372197579	0.3440905535212307	-0.04211629888391798	-60.20907176182623	-4.759847483727659	2.787450672711481	7.332502183060117	-760.8773107321762	82.64637658015994	1.070387936775704	0.1834199989363268	1.617830714734826	-4.843127339350755	0.2610360146522306	-0.4188718933425505	0.4513712558767539	-4.717307593565534	-4.717307593562509	0.7768449244013729	-0.01513421383711583	-1.103635580700482	-0.07692090047954624	1.325982852779502e-08	1.925283748223151e-08	8.348428824006329e-08	1.009608439133859e-07	-6.956401938692113e-09	-2.379710191884808e-08	1.644819789435735e-07
